<svg xmlns="http://www.w3.org/2000/svg" preserveAspectRatio="xMidYMid" width="25" height="26" viewBox="0 0 25 26"><defs><style>.cls-2 { fill: #ffffff; }</style></defs><path d="M22.263 17.035c-3.544 3.544-9.08 3.861-12.994.973l-7.159 7.159-2.121-2.121 7.159-7.16c-2.888-3.913-2.571-9.449.973-12.993 3.905-3.905 10.237-3.905 14.142 0 3.905 3.905 3.905 10.237 0 14.142zm-2.67-11.472c-2.431-2.431-6.372-2.431-8.803 0-2.431 2.431-2.431 6.372 0 8.803 2.431 2.431 6.372 2.431 8.803 0 2.431-2.431 2.431-6.372 0-8.803z" id="path-1" class="cls-2" fill-rule="evenodd"/></svg>