<?xml version="1.0" encoding="utf-8"?>
<!-- Generator: Adobe Illustrator 18.1.0, SVG Export Plug-In . SVG Version: 6.00 Build 0)  -->
<svg version="1.1" id="Layer_1" xmlns="http://www.w3.org/2000/svg" xmlns:xlink="http://www.w3.org/1999/xlink" x="0px" y="0px"
	 viewBox="-119.5 388 11.4 18" enable-background="new -119.5 388 11.4 18" xml:space="preserve" fill="#2c343a">
<path id="path-1" d="M-108.9,396.4c0.5,0.6,0.8,1.3,0.8,2.3c0,0.7-0.1,1.3-0.4,1.9c-0.3,0.5-0.6,1-1.1,1.3c-0.5,0.4-1.1,0.7-1.8,0.9
	c-0.6,0.2-1.4,0.3-2.4,0.3h-5.7v-14.1h5.1c1,0,1.8,0,2.4,0.1c0.5,0.1,1,0.2,1.5,0.5c0.5,0.3,0.9,0.6,1.1,1.1c0.2,0.5,0.4,1,0.4,1.6
	c0,0.7-0.2,1.3-0.5,1.8c-0.3,0.5-0.8,0.9-1.4,1.2v0.1C-110.1,395.5-109.4,395.9-108.9,396.4z M-112.8,392.2
	c-0.1-0.2-0.3-0.4-0.5-0.5c-0.2-0.1-0.5-0.2-0.8-0.2c-0.3,0-0.8,0-1.4,0h-0.2v3h0.4c0.6,0,1,0,1.3,0c0.2,0,0.5-0.1,0.8-0.2
	c0.3-0.1,0.5-0.3,0.6-0.6c0.1-0.2,0.2-0.5,0.2-0.8C-112.6,392.7-112.7,392.5-112.8,392.2z M-112,397.6c-0.2-0.3-0.4-0.4-0.8-0.6
	c-0.2-0.1-0.5-0.1-0.9-0.1c-0.4,0-0.9,0-1.5,0h-0.7v3.5h0.2c0.9,0,1.6,0,1.9,0c0.4,0,0.7-0.1,1.1-0.3c0.3-0.1,0.6-0.3,0.7-0.6
	c0.1-0.3,0.2-0.6,0.2-0.9C-111.8,398.2-111.8,397.9-112,397.6z M-166.7,393.6c0,0.2,0,0.3,0,0.5c0,5.2-4,11.2-11.2,11.2
	c-2.2,0-4.3-0.6-6-1.8c0.3,0,0.6,0.1,0.9,0.1c1.8,0,3.5-0.6,4.9-1.7c-1.7,0-3.2-1.2-3.7-2.7c0.2,0,0.5,0.1,0.7,0.1
	c0.4,0,0.7,0,1-0.1c-1.8-0.4-3.1-1.9-3.1-3.9c0,0,0,0,0,0c0.5,0.3,1.1,0.5,1.8,0.5c-1.1-0.7-1.7-1.9-1.7-3.3c0-0.7,0.2-1.4,0.5-2
	c1.9,2.4,4.8,3.9,8.1,4.1c-0.1-0.3-0.1-0.6-0.1-0.9c0-2.2,1.8-3.9,3.9-3.9c1.1,0,2.1,0.5,2.9,1.2c0.9-0.2,1.7-0.5,2.5-1
	c-0.3,0.9-0.9,1.7-1.7,2.2c0.8-0.1,1.6-0.3,2.3-0.6C-165.3,392.4-166,393.1-166.7,393.6z M-233.4,392.3l0,1.7h2.8l-0.3,3h-2.4v9
	h-4.1v-9h-1.6v-3h1.6V392c0-2.5,1.1-4,4-4h3v3h-1.8C-233.3,391-233.4,391.5-233.4,392.3z"/>
</svg>
