<svg xmlns="http://www.w3.org/2000/svg" xmlns:xlink="http://www.w3.org/1999/xlink" preserveAspectRatio="xMidYMid" width="18" height="22" viewBox="0 0 18 22">
  <defs>
    <style>

      .cls-2 {
        fill: #666666;
      }
    </style>
  </defs>
  <path d="M16.892,8.811 C14.202,10.456 10.307,7.962 10.307,7.962 C10.307,7.962 9.868,3.354 12.558,1.708 C13.589,1.077 14.936,1.403 15.566,2.435 C16.017,3.175 15.978,4.077 15.540,4.761 C16.348,4.683 17.167,5.060 17.619,5.799 C18.248,6.832 17.923,8.180 16.892,8.811 ZM2.702,5.379 C2.072,4.347 2.398,2.999 3.429,2.368 C4.167,1.916 5.068,1.955 5.751,2.394 C5.673,1.585 6.050,0.765 6.789,0.313 C7.820,-0.318 9.166,0.008 9.796,1.040 C11.440,3.734 8.949,7.633 8.949,7.633 C8.949,7.633 4.346,8.073 2.702,5.379 ZM8.620,8.993 C8.620,8.993 9.060,13.601 6.369,15.247 C5.338,15.878 3.992,15.552 3.362,14.520 C2.910,13.780 2.949,12.878 3.387,12.195 C2.580,12.272 1.760,11.896 1.309,11.156 C0.679,10.124 1.004,8.775 2.035,8.145 C4.726,6.499 8.620,8.993 8.620,8.993 ZM3.062,18.888 C3.617,18.651 4.196,18.364 4.748,18.030 C5.023,17.862 5.292,17.684 5.549,17.496 C5.804,17.307 6.047,17.109 6.272,16.904 C6.497,16.700 6.703,16.489 6.887,16.278 C7.072,16.067 7.234,15.855 7.373,15.651 C7.512,15.447 7.629,15.251 7.722,15.072 C7.772,14.983 7.811,14.897 7.850,14.818 C7.888,14.738 7.918,14.663 7.948,14.596 C8.003,14.460 8.046,14.352 8.070,14.277 C8.096,14.202 8.110,14.162 8.110,14.162 C8.110,14.162 8.105,14.204 8.095,14.283 C8.086,14.362 8.068,14.477 8.042,14.624 C8.026,14.697 8.011,14.779 7.991,14.867 C7.968,14.954 7.947,15.050 7.917,15.150 C7.861,15.352 7.784,15.577 7.685,15.818 C7.587,16.059 7.465,16.316 7.319,16.579 C7.173,16.842 7.002,17.112 6.810,17.380 C6.618,17.648 6.404,17.915 6.173,18.176 C5.942,18.435 5.695,18.688 5.438,18.931 C4.923,19.416 4.367,19.857 3.825,20.239 C3.283,20.623 2.754,20.948 2.290,21.211 C1.826,21.474 1.426,21.675 1.139,21.811 C0.995,21.879 0.880,21.930 0.798,21.966 C0.756,21.984 0.723,21.997 0.701,22.007 C0.676,22.017 0.662,22.022 0.662,22.022 C0.662,22.022 0.009,19.847 0.009,19.847 C0.008,19.848 0.013,19.847 0.015,19.847 C0.018,19.846 0.020,19.846 0.029,19.845 C0.046,19.841 0.071,19.837 0.104,19.831 C0.172,19.817 0.275,19.795 0.408,19.764 C0.674,19.702 1.060,19.602 1.518,19.458 C1.976,19.314 2.508,19.126 3.062,18.888 ZM16.225,11.576 C16.855,12.608 16.530,13.956 15.499,14.587 C14.760,15.039 13.859,14.999 13.176,14.561 C13.254,15.370 12.878,16.190 12.139,16.642 C11.108,17.273 9.761,16.947 9.131,15.915 C7.487,13.221 9.979,9.322 9.979,9.322 C9.979,9.322 14.581,8.882 16.225,11.576 Z" id="path-1" class="cls-2" fill-rule="evenodd"/>
</svg>
