<svg xmlns="http://www.w3.org/2000/svg" xmlns:xlink="http://www.w3.org/1999/xlink" preserveAspectRatio="xMidYMid" width="19" height="18" viewBox="0 0 19 18">
  <defs>
    <style>

      .cls-2 {
        fill: #666666;
      }
    </style>
  </defs>
  <path d="M0.974,8.819 C0.974,8.819 9.279,1.373 9.279,1.373 C9.279,1.373 17.584,8.819 17.584,8.819 C17.694,8.918 17.829,8.966 17.964,8.966 C18.126,8.966 18.287,8.896 18.401,8.760 C18.611,8.510 18.584,8.132 18.344,7.914 C18.344,7.914 9.659,0.128 9.659,0.128 C9.441,-0.068 9.118,-0.068 8.900,0.128 C8.900,0.128 5.805,2.902 5.805,2.902 C5.805,2.902 5.805,1.778 5.805,1.778 C5.805,1.117 5.286,0.580 4.647,0.580 C4.008,0.580 3.489,1.117 3.489,1.778 C3.489,1.778 3.489,4.978 3.489,4.978 C3.489,4.978 0.214,7.914 0.214,7.914 C-0.027,8.131 -0.054,8.510 0.156,8.760 C0.367,9.009 0.732,9.036 0.974,8.819 ZM6.963,11.362 C6.963,11.362 11.595,11.362 11.595,11.362 C11.595,11.362 11.595,17.351 11.595,17.351 C11.595,17.351 15.069,17.351 15.069,17.351 C15.707,17.351 16.227,16.814 16.227,16.154 C16.227,16.154 16.227,10.283 16.227,10.283 C16.227,9.923 16.071,9.584 15.802,9.357 C15.802,9.357 10.012,4.446 10.012,4.446 C9.800,4.265 9.540,4.174 9.279,4.174 C9.018,4.174 8.758,4.265 8.545,4.446 C8.545,4.446 2.755,9.357 2.755,9.357 C2.486,9.584 2.331,9.923 2.331,10.283 C2.331,10.283 2.331,16.154 2.331,16.154 C2.331,16.814 2.850,17.351 3.489,17.351 C3.489,17.351 6.963,17.351 6.963,17.351 C6.963,17.351 6.963,11.362 6.963,11.362 Z" id="path-1" class="cls-2" fill-rule="evenodd"/>
</svg>
