<svg xmlns="http://www.w3.org/2000/svg" xmlns:xlink="http://www.w3.org/1999/xlink" preserveAspectRatio="xMidYMid" width="22" height="22" viewBox="0 0 22 22">
  <defs>
    <style>

      .cls-2 {
        fill: #333333;
      }
    </style>
  </defs>
  <path d="M20.047,8.996 C20.047,8.996 15.806,13.234 15.806,13.234 C14.695,14.346 13.250,14.907 11.836,14.906 C10.529,14.906 9.253,14.430 8.286,13.465 C7.750,12.926 7.750,12.058 8.286,11.520 C8.824,10.983 9.693,10.983 10.229,11.519 C11.168,12.456 12.798,12.354 13.862,11.292 C13.862,11.292 18.105,7.048 18.105,7.048 C18.671,6.482 18.995,5.745 18.995,5.021 C18.995,4.592 18.879,3.967 18.336,3.419 C17.750,2.833 17.078,2.737 16.610,2.761 C15.918,2.792 15.242,3.107 14.703,3.644 C14.703,3.644 12.270,6.076 12.270,6.076 C11.703,5.509 9.365,5.091 8.734,5.726 C8.734,5.726 12.756,1.702 12.756,1.702 C13.782,0.680 15.102,0.078 16.480,0.014 C17.918,-0.054 19.266,0.465 20.276,1.474 C21.224,2.420 21.746,3.681 21.746,5.021 C21.745,6.470 21.127,7.919 20.047,8.996 ZM13.465,8.285 C14.001,8.824 14.001,9.692 13.465,10.229 C12.927,10.766 12.057,10.766 11.519,10.229 C10.582,9.294 8.953,9.395 7.887,10.458 C7.887,10.458 3.645,14.702 3.645,14.702 C3.079,15.268 2.754,16.005 2.754,16.728 C2.754,17.158 2.870,17.783 3.414,18.331 C4.000,18.917 4.672,19.013 5.140,18.989 C5.832,18.958 6.508,18.641 7.047,18.105 C7.047,18.105 9.478,15.675 9.478,15.675 C10.048,16.241 12.384,16.659 13.016,16.023 C13.016,16.023 8.994,20.048 8.994,20.048 C7.969,21.070 6.648,21.672 5.270,21.736 C3.832,21.804 2.484,21.286 1.473,20.275 C0.525,19.330 0.004,18.071 0.004,16.728 C0.005,15.280 0.622,13.831 1.702,12.754 C1.702,12.754 5.944,8.516 5.944,8.516 C7.054,7.404 8.501,6.844 9.914,6.844 C11.219,6.843 12.497,7.320 13.465,8.285 Z" id="path-1" class="cls-2" fill-rule="evenodd"/>
</svg>
