<svg xmlns="http://www.w3.org/2000/svg" preserveAspectRatio="xMidYMid" width="132" height="18" viewBox="0 0 132 18"><defs><style>.cls-2 { fill: #2c343a; }</style></defs><path d="M130.104 8.449c.523.567.786 1.329.786 2.287 0 .701-.133 1.317-.399 1.851-.264.53-.621.967-1.069 1.316-.53.415-1.114.711-1.752.889-.634.177-1.438.264-2.418.264h-5.721v-14.108h5.06c1.034 0 1.818.04 2.352.12.536.077 1.036.242 1.501.494.505.273.884.639 1.131 1.091.248.455.377.98.377 1.574 0 .689-.173 1.3-.517 1.837-.345.539-.818.934-1.424 1.188v.074c.871.184 1.568.557 2.093 1.123zm-3.927-4.212c-.115-.238-.296-.414-.547-.52-.234-.104-.506-.159-.826-.169-.322-.008-.798-.012-1.428-.012h-.246v2.985h.447c.604 0 1.029-.007 1.273-.019.243-.014.497-.078.755-.196.281-.132.479-.319.584-.551.109-.237.164-.508.164-.816 0-.228-.059-.461-.176-.702zm.799 5.411c-.177-.25-.444-.432-.798-.557-.212-.087-.509-.131-.884-.141-.375-.01-.88-.014-1.509-.014h-.655v3.533h.191c.922 0 1.559-.005 1.911-.02.353-.013.716-.097 1.081-.255.322-.141.556-.343.706-.609.147-.269.22-.575.22-.914 0-.436-.085-.776-.263-1.023zm-54.715-4.038l.012.508c0 5.187-3.951 11.171-11.173 11.171-2.217 0-4.282-.65-6.019-1.765.307.037.619.055.936.055 1.841 0 3.534-.627 4.877-1.68-1.718-.031-3.168-1.168-3.669-2.727.241.046.487.071.74.071.358 0 .705-.048 1.034-.138-1.796-.362-3.149-1.947-3.149-3.851v-.049c.53.294 1.134.471 1.778.491-1.054-.705-1.746-1.906-1.746-3.268 0-.72.193-1.394.531-1.975 1.937 2.376 4.831 3.939 8.094 4.103-.067-.288-.102-.587-.102-.895 0-2.168 1.758-3.926 3.927-3.926 1.129 0 2.149.476 2.865 1.24.894-.176 1.735-.503 2.494-.952-.293.916-.916 1.685-1.727 2.172.795-.096 1.551-.306 2.256-.619-.526.788-1.191 1.48-1.959 2.034zm-66.631-1.345l-.005 1.704h2.764l-.331 3.033h-2.433v9.004h-4.062v-9.004h-1.577v-3.033h1.577v-1.932c0-2.533 1.051-4.037 4.037-4.037h3.025v3.022h-1.757c-1.162 0-1.238.433-1.238 1.243z" id="path-1" class="cls-2" fill-rule="evenodd"/></svg>