<?xml version="1.0" encoding="UTF-8" standalone="no"?>
<!-- Generator: Avocode 0.7.1 - http://avocode.com -->
<svg xmlns="http://www.w3.org/2000/svg" xmlns:xlink="http://www.w3.org/1999/xlink" width="20" height="17" viewBox="0 0 20 17">
    <desc>Created with Avocode</desc>
    <path d="M 19.63 2.58 C 19.63 2.58, 20.15 1.79, 19.63 2.58 C 19.1 3.36, 18.44 4.06, 17.67 4.61 C 17.67 4.78, 17.68 4.95, 17.68 5.12 C 17.68 10.3, 13.73 16.29, 6.51 16.29 C 4.29 16.29, 2.22 15.64, 0.49 14.52 C 0.79 14.56, 1.11 14.58, 1.42 14.58 C 3.26 14.58, 4.96 13.95, 6.3 12.9 C 4.58 12.87, 3.13 11.73, 2.63 10.17 C 2.87 10.22, 3.12 10.24, 3.37 10.24 C 3.73 10.24, 4.08 10.19, 4.4 10.1 C 2.61 9.74, 1.26 8.16, 1.26 6.25 C 1.26 6.24, 1.26 6.22, 1.26 6.2 C 1.79 6.5, 2.39 6.68, 3.03 6.7 C 1.98 5.99, 1.29 4.79, 1.29 3.43 C 1.29 2.71, 1.48 2.03, 1.82 1.45 C 3.76 3.83, 6.65 5.39, 9.91 5.56 C 9.85 5.27, 9.81 4.97, 9.81 4.66 C 9.81 2.49, 11.57 0.73, 13.74 0.73 C 14.87 0.73, 15.89 1.21, 16.6 1.97 C 17.5 1.8, 18.34 1.47, 19.1 1.02 C 18.8 1.94, 18.18 2.71, 17.37 3.19 C 18.17 3.1, 18.92 2.89, 19.63 2.58 Z" fill="#0093dd" />
</svg>