<?xml version="1.0" encoding="UTF-8" standalone="no"?>
<!-- Generator: Avocode 0.7.1 - http://avocode.com -->
<svg xmlns="http://www.w3.org/2000/svg" xmlns:xlink="http://www.w3.org/1999/xlink" width="27" height="26" viewBox="0 0 27 26">
    <desc>Created with Avocode</desc>
    <g fill="#2f8de0">
        <path d="M 10.66 24.7 C 10.55 25.09, 10.55 25.49, 10.62 25.88 C 5.61 25.8, 0.53 25.05, 0.53 22.27 C 0.53 21.69, 0.53 22.04, 0.53 21.46 C 0.53 19.29, 4.43 17.1, 7.75 15.9 C 7.99 15.81, 9.14 15.19, 8.5 13.5 C 6.85 11.82, 5.61 9.1, 5.61 6.42 C 5.61 2.31, 8.33 0.16, 11.5 0.16 C 14.67 0.16, 17.41 2.31, 17.41 6.42 C 17.41 9.09, 16.16 11.8, 14.52 13.49 L 14.53 13.49 C 13.9 15.4, 14.9 15.85, 15.06 15.9 C 15.31 15.98, 15.57 16.07, 15.82 16.17 L 12.64 19.31 C 12.29 19.63, 12.03 20.04, 11.9 20.48 L 10.66 24.7 Z" />
        <path d="M 22.19 17.2 L 23.63 18.64 L 17.7 24.51 C 17.64 24.58, 17.56 24.65, 17.46 24.68 L 13.23 25.92 C 13.18 25.93, 13.14 25.94, 13.09 25.94 C 12.95 25.94, 12.81 25.89, 12.71 25.79 C 12.58 25.65, 12.53 25.45, 12.58 25.27 L 13.82 21.04 C 13.85 20.93, 13.92 20.85, 14 20.78 L 19.92 14.92 L 21.22 16.22 L 21.21 16.23 L 22.18 17.2 L 22.19 17.2 M 16.42 22.06 L 15.02 21.95 L 14.73 21.66 L 14.07 23.94 L 14.56 24.43 L 16.83 23.77 L 16.49 23.43 L 16.42 22.06 Z" />
        <path d="M 20.45 14.33 L 21.3 13.54 L 25.02 17.25 L 24.17 18.05 L 20.45 14.33 Z" />
        <path d="M 25.99 14.28 C 26.48 14.77, 26.49 15.56, 26 16.05 L 25.46 16.6 L 21.9 13.04 L 22.44 12.49 C 22.93 12.01, 23.72 12.01, 24.21 12.5 L 25.99 14.28 Z" />
    </g>
</svg>