<svg xmlns="http://www.w3.org/2000/svg" viewBox="-42 543.6 14.1 8.5" enable-background="new -42 543.6 14.1 8.5" fill="#3195ec"><path d="M-42 455.1l1.4-1.4 5.7 5.7 5.7-5.7 1.4 1.4-7.1 7.1-7.1-7.1zm0-60l1.4-1.4 5.7 5.7 5.7-5.7 1.4 1.4-7.1 7.1-7.1-7.1zm0-90l1.4-1.4 5.7 5.7 5.7-5.7 1.4 1.4-7.1 7.1-7.1-7.1zm0-90l1.4-1.4 5.7 5.7 5.7-5.7 1.4 1.4-7.1 7.1-7.1-7.1zm0-60l1.4-1.4 5.7 5.7 5.7-5.7 1.4 1.4-7.1 7.1-7.1-7.1zm0-60l1.4-1.4 5.7 5.7 5.7-5.7 1.4 1.4-7.1 7.1-7.1-7.1zm0-60l1.4-1.4 5.7 5.7 5.7-5.7 1.4 1.4-7.1 7.1-7.1-7.1zm0-90l1.4-1.4 5.7 5.7 5.7-5.7 1.4 1.4-7.1 7.1-7.1-7.1zm0-330l1.4-1.4 5.7 5.7 5.7-5.7 1.4 1.4-7.1 7.1-7.1-7.1zm0-60l1.4-1.4 5.7 5.7 5.7-5.7 1.4 1.4-7.1 7.1-7.1-7.1zm7.1 994.2l5.7-5.7 1.4 1.4-7.1 7.1-7.1-7.1 1.4-1.4 5.7 5.7z"/></svg>