<svg xmlns="http://www.w3.org/2000/svg" xmlns:xlink="http://www.w3.org/1999/xlink" preserveAspectRatio="xMidYMid" width="14" height="15" viewBox="0 0 14 15">
  <defs>
    <style>

      .cls-2 {
        fill: #cccccc;
      }
    </style>
  </defs>
  <path d="M13.464,3.739 C13.464,3.739 13.464,3.739 13.464,3.739 C13.464,3.739 10.036,0.825 10.036,0.825 C10.629,-0.161 12.260,-0.237 13.207,0.568 C14.154,1.373 14.269,2.792 13.464,3.739 ZM13.250,7.532 C13.250,9.416 12.399,11.086 11.080,12.232 C11.080,12.232 12.291,14.031 12.291,14.031 C12.395,14.210 12.333,14.440 12.154,14.543 C11.975,14.647 11.745,14.585 11.642,14.406 C11.642,14.406 10.500,12.710 10.500,12.710 C9.501,13.386 8.297,13.782 7.000,13.782 C5.670,13.782 4.443,13.360 3.430,12.653 C3.430,12.653 2.225,14.585 2.225,14.585 C2.118,14.773 1.881,14.837 1.696,14.729 C1.511,14.621 1.447,14.381 1.554,14.194 C1.554,14.194 2.781,12.227 2.781,12.227 C2.797,12.199 2.829,12.196 2.850,12.174 C1.571,11.029 0.750,9.384 0.750,7.532 C0.750,4.080 3.548,1.282 7.000,1.282 C10.452,1.282 13.250,4.080 13.250,7.532 ZM11.000,7.500 C11.000,7.500 7.000,7.500 7.000,7.500 C7.000,7.500 7.000,3.500 7.000,3.500 C7.000,3.500 6.000,3.500 6.000,3.500 C6.000,3.500 6.000,7.250 6.000,7.250 C6.000,7.250 6.000,8.500 6.000,8.500 C6.000,8.500 6.750,8.500 6.750,8.500 C6.750,8.500 11.000,8.500 11.000,8.500 C11.000,8.500 11.000,7.500 11.000,7.500 ZM0.526,3.687 C-0.264,2.754 -0.151,1.353 0.778,0.560 C1.708,-0.233 3.231,-0.215 3.891,0.814 C3.895,0.819 3.897,0.824 3.900,0.829 C3.900,0.829 0.526,3.687 0.526,3.687 C0.526,3.687 0.526,3.687 0.526,3.687 Z" id="path-1" class="cls-2" fill-rule="evenodd"/>
</svg>
