<svg xmlns="http://www.w3.org/2000/svg" xmlns:xlink="http://www.w3.org/1999/xlink" preserveAspectRatio="xMidYMid" width="21" height="21" viewBox="0 0 21 21">
  <defs>
    <style>

      .cls-2 {
        fill: #ffffff;
      }
    </style>
  </defs>
  <path d="M20.261,18.139 C20.261,18.139 18.140,20.260 18.140,20.260 C18.140,20.260 10.125,12.246 10.125,12.246 C10.125,12.246 2.110,20.260 2.110,20.260 C2.110,20.260 -0.011,18.139 -0.011,18.139 C-0.011,18.139 8.004,10.124 8.004,10.124 C8.004,10.124 -0.002,2.119 -0.002,2.119 C-0.002,2.119 2.119,-0.003 2.119,-0.003 C2.119,-0.003 10.125,8.003 10.125,8.003 C10.125,8.003 18.131,-0.003 18.131,-0.003 C18.131,-0.003 20.252,2.119 20.252,2.119 C20.252,2.119 12.246,10.124 12.246,10.124 C12.246,10.124 20.261,18.139 20.261,18.139 Z" id="path-1" class="cls-2" fill-rule="evenodd"/>
</svg>
