<svg xmlns="http://www.w3.org/2000/svg" xmlns:xlink="http://www.w3.org/1999/xlink" preserveAspectRatio="xMidYMid" width="22" height="19" viewBox="0 0 22 19">
  <defs>
    <style>

      .cls-2 {
        fill: #474747;
      }
    </style>
  </defs>
  <path d="M19.000,19.000 C19.000,19.000 3.000,19.000 3.000,19.000 C1.343,19.000 -0.000,17.657 -0.000,16.000 C-0.000,16.000 -0.000,3.000 -0.000,3.000 C-0.000,1.343 1.343,-0.000 3.000,-0.000 C3.000,-0.000 19.000,-0.000 19.000,-0.000 C20.657,-0.000 22.000,1.343 22.000,3.000 C22.000,3.000 22.000,16.000 22.000,16.000 C22.000,17.657 20.657,19.000 19.000,19.000 ZM19.000,5.368 C19.000,4.060 17.901,3.000 16.545,3.000 C16.545,3.000 5.455,3.000 5.455,3.000 C4.099,3.000 3.000,4.060 3.000,5.368 C3.000,5.368 3.000,13.632 3.000,13.632 C3.000,14.939 4.099,16.000 5.455,16.000 C5.455,16.000 16.545,16.000 16.545,16.000 C17.901,16.000 19.000,14.939 19.000,13.632 C19.000,13.632 19.000,5.368 19.000,5.368 ZM11.002,13.596 C11.002,13.596 10.795,13.397 10.795,13.397 C10.795,13.397 3.795,6.397 3.795,6.397 C3.795,6.397 4.795,5.397 4.795,5.397 C4.795,5.397 10.795,11.397 10.795,11.397 C10.795,11.397 11.002,11.596 11.002,11.596 C11.002,11.596 11.209,11.397 11.209,11.397 C11.209,11.397 17.209,5.397 17.209,5.397 C17.209,5.397 18.209,6.397 18.209,6.397 C18.209,6.397 11.209,13.397 11.209,13.397 C11.209,13.397 11.002,13.596 11.002,13.596 Z" id="path-1" class="cls-2" fill-rule="evenodd"/>
</svg>
