<svg xmlns="http://www.w3.org/2000/svg" xmlns:xlink="http://www.w3.org/1999/xlink" preserveAspectRatio="xMidYMid" width="25" height="20" viewBox="0 0 25 20">
  <defs>
    <style>

      .cls-2 {
        fill: #cc3333;
      }
    </style>
  </defs>
  <path d="M21.375,11.531 C21.375,11.531 21.375,15.531 21.375,15.531 C21.375,15.531 18.375,15.531 18.375,15.531 C18.375,15.531 18.375,11.531 18.375,11.531 C18.375,11.531 14.375,11.531 14.375,11.531 C14.375,11.531 14.375,8.531 14.375,8.531 C14.375,8.531 18.375,8.531 18.375,8.531 C18.375,8.531 18.375,4.531 18.375,4.531 C18.375,4.531 21.375,4.531 21.375,4.531 C21.375,4.531 21.375,8.531 21.375,8.531 C21.375,8.531 25.375,8.531 25.375,8.531 C25.375,8.531 25.375,11.531 25.375,11.531 C25.375,11.531 21.375,11.531 21.375,11.531 ZM9.455,0.837 C10.037,1.394 11.258,2.354 11.258,4.254 C11.258,6.101 10.193,7.020 9.128,7.840 C8.800,8.166 8.415,8.520 8.415,9.067 C8.415,9.615 8.800,9.917 9.079,10.138 C9.079,10.138 9.990,10.839 9.990,10.839 C11.103,11.764 12.114,12.617 12.114,14.336 C12.114,16.684 9.808,19.056 5.452,19.056 C1.779,19.056 0.009,17.334 0.009,15.486 C0.009,14.589 0.464,13.313 1.963,12.437 C3.529,11.489 5.656,11.364 6.799,11.285 C6.442,10.839 6.037,10.366 6.037,9.589 C6.037,9.170 6.165,8.918 6.294,8.616 C6.013,8.639 5.734,8.666 5.481,8.666 C2.796,8.666 1.272,6.689 1.272,4.741 C1.272,3.591 1.806,2.312 2.900,1.394 C4.338,0.216 6.065,0.009 7.430,0.009 C7.430,0.009 12.648,0.009 12.648,0.009 C12.648,0.009 11.025,0.837 11.025,0.837 C11.025,0.837 9.455,0.837 9.455,0.837 ZM4.416,12.389 C3.856,12.591 2.240,13.189 2.240,14.961 C2.240,16.734 3.986,18.009 6.695,18.009 C9.128,18.009 10.417,16.856 10.417,15.309 C10.417,14.034 9.584,13.362 7.661,12.014 C7.457,11.990 7.330,11.990 7.075,11.990 C6.847,11.990 5.481,12.038 4.416,12.389 ZM5.834,0.849 C5.177,0.849 4.468,1.173 4.059,1.679 C3.630,2.197 3.499,2.872 3.499,3.520 C3.499,5.194 4.494,7.969 6.669,7.969 C7.307,7.969 7.987,7.665 8.396,7.267 C8.973,6.690 9.024,5.893 9.024,5.448 C9.024,3.646 7.936,0.849 5.834,0.849 Z" id="path-1" class="cls-2" fill-rule="evenodd"/>
</svg>
