<svg xmlns="http://www.w3.org/2000/svg" xmlns:xlink="http://www.w3.org/1999/xlink" preserveAspectRatio="xMidYMid" width="29" height="40" viewBox="0 0 29 40">
  <defs>
    <style>

      .cls-2 {
        fill: #000000;
        opacity: 0.3;
      }
    </style>
  </defs>
  <path d="M15.299,39.611 C15.061,39.880 14.720,40.034 14.361,40.034 C13.982,40.026 13.658,39.879 13.420,39.608 C12.871,38.982 -0.005,24.172 -0.005,14.409 C-0.005,6.464 6.449,0.001 14.382,0.001 C22.279,0.001 28.733,6.462 28.769,14.403 C28.813,24.172 15.850,38.985 15.299,39.611 ZM14.382,2.503 C7.829,2.503 2.497,7.844 2.497,14.409 C2.497,21.814 11.408,33.255 14.364,36.844 C17.334,33.257 26.300,21.811 26.267,14.415 C26.237,7.847 20.905,2.503 14.382,2.503 ZM9.378,14.388 C9.378,11.628 11.623,9.384 14.382,9.384 C17.141,9.384 19.386,11.628 19.386,14.388 C19.386,17.147 17.141,19.392 14.382,19.392 C11.623,19.392 9.378,17.147 9.378,14.388 ZM16.884,14.388 C16.884,13.008 15.762,11.886 14.382,11.886 C13.002,11.886 11.880,13.008 11.880,14.388 C11.880,15.768 13.002,16.890 14.382,16.890 C15.762,16.890 16.884,15.768 16.884,14.388 Z" id="path-1" class="cls-2" fill-rule="evenodd"/>
</svg>
