<svg xmlns="http://www.w3.org/2000/svg" xmlns:xlink="http://www.w3.org/1999/xlink" preserveAspectRatio="xMidYMid" width="12" height="28" viewBox="0 0 12 28">
  <defs>
    <style>

      .cls-2 {
        fill: #666666;
      }
    </style>
  </defs>
  <path d="M9.294,23.553 C9.294,23.553 9.294,23.533 9.294,23.533 C9.317,23.522 9.331,23.498 9.331,23.472 C9.331,23.472 9.331,22.227 9.331,22.227 C9.331,22.187 9.300,22.154 9.263,22.154 C9.263,22.154 8.581,22.154 8.581,22.154 C8.581,22.154 7.464,18.187 7.464,18.187 C7.758,17.948 7.950,17.585 7.950,17.172 C7.950,16.620 7.611,16.150 7.134,15.960 C6.705,12.941 6.491,8.037 6.404,5.553 C6.634,5.326 6.784,4.953 6.784,4.529 C6.784,4.529 6.784,2.972 6.784,2.972 C6.784,2.395 6.505,1.914 6.127,1.768 C6.127,1.768 6.127,0.174 6.127,0.174 C6.128,0.075 6.019,-0.006 5.888,-0.006 C5.753,-0.006 5.645,0.075 5.645,0.174 C5.645,0.174 5.645,1.777 5.645,1.777 C5.276,1.931 5.005,2.406 5.005,2.974 C5.005,2.974 5.005,4.532 5.005,4.532 C5.005,4.955 5.155,5.327 5.383,5.554 C5.297,8.035 5.084,12.930 4.658,15.949 C4.158,16.128 3.799,16.607 3.799,17.174 C3.799,17.601 4.004,17.976 4.317,18.215 C4.317,18.215 3.208,22.156 3.208,22.156 C3.208,22.156 2.535,22.156 2.535,22.156 C2.495,22.156 2.464,22.188 2.464,22.229 C2.464,22.229 2.464,23.474 2.464,23.474 C2.464,23.498 2.475,23.518 2.492,23.529 C2.492,23.529 2.492,23.554 2.492,23.554 C2.492,23.554 -0.006,28.096 -0.006,28.096 C-0.006,28.096 2.491,28.096 2.491,28.096 C2.491,28.096 2.746,24.761 5.892,24.723 C9.042,24.761 9.296,28.096 9.296,28.096 C9.296,28.096 11.793,28.096 11.793,28.096 C11.793,28.096 9.294,23.553 9.294,23.553 Z" id="path-1" class="cls-2" fill-rule="evenodd"/>
</svg>
