<svg xmlns="http://www.w3.org/2000/svg" xmlns:xlink="http://www.w3.org/1999/xlink" preserveAspectRatio="xMidYMid" width="17" height="20" viewBox="0 0 17 20">
  <defs>
    <style>

      .cls-2 {
        fill: #666666;
      }
    </style>
  </defs>
  <path d="M8.174,19.558 C8.174,19.558 8.174,6.112 8.174,6.112 C8.174,6.112 16.076,6.112 16.076,6.112 C16.076,6.112 16.076,19.558 16.076,19.558 C16.076,19.558 8.174,19.558 8.174,19.558 ZM12.226,18.977 C12.477,18.977 12.682,18.770 12.682,18.516 C12.682,18.261 12.477,18.056 12.226,18.056 C11.974,18.056 11.770,18.261 11.770,18.516 C11.770,18.770 11.974,18.977 12.226,18.977 ZM12.301,6.669 C12.195,6.669 12.110,6.755 12.110,6.861 C12.110,6.968 12.195,7.055 12.301,7.055 C12.406,7.055 12.491,6.968 12.491,6.861 C12.491,6.755 12.406,6.669 12.301,6.669 ZM13.437,7.314 C13.437,7.314 11.164,7.314 11.164,7.314 C11.164,7.314 11.164,7.499 11.164,7.499 C11.164,7.499 13.437,7.499 13.437,7.499 C13.437,7.499 13.437,7.314 13.437,7.314 ZM14.809,8.159 C14.809,8.159 9.442,8.160 9.442,8.160 C9.442,8.160 9.442,17.405 9.442,17.405 C10.460,17.414 12.756,17.405 14.809,17.394 C14.809,17.394 14.809,8.159 14.809,8.159 ZM9.662,1.667 C9.662,1.667 1.631,1.667 1.631,1.667 C1.631,1.667 1.631,14.314 1.631,14.314 C1.631,14.314 7.382,14.314 7.382,14.314 C7.382,14.314 7.382,17.156 7.382,17.156 C7.382,17.156 -0.002,17.156 -0.002,17.156 C-0.002,17.156 -0.002,0.015 -0.002,0.015 C-0.002,0.015 11.294,0.015 11.294,0.015 C11.294,0.015 11.294,5.237 11.294,5.237 C11.294,5.237 9.662,5.237 9.662,5.237 C9.662,5.237 9.662,1.667 9.662,1.667 ZM5.884,16.296 C6.185,16.296 6.429,16.049 6.429,15.745 C6.429,15.441 6.185,15.195 5.884,15.195 C5.584,15.195 5.340,15.441 5.340,15.745 C5.340,16.049 5.584,16.296 5.884,16.296 Z" id="path-1" class="cls-2" fill-rule="evenodd"/>
</svg>
