<svg xmlns="http://www.w3.org/2000/svg" xmlns:xlink="http://www.w3.org/1999/xlink" preserveAspectRatio="xMidYMid" width="19" height="18" viewBox="0 0 19 18">
  <defs>
    <style>

      .cls-2 {
        fill: #ffcc00;
        filter: url(#inner-shadow-1);
      }
    </style>

    <filter id="inner-shadow-1" filterUnits="userSpaceOnUse">
      <feOffset in="SourceAlpha" dx="0" dy="1"/>
      <feGaussianBlur result="innerShadowBlur" stdDeviation="1"/>
      <feFlood flood-color="#000000" flood-opacity="0.1"/>
      <feComposite operator="out" in2="innerShadowBlur"/>
      <feComposite operator="in" in2="SourceAlpha"/>
      <feBlend mode="normal" in2="SourceGraphic" result="innerShadow"/>
    </filter>
  </defs>
  <path d="M11.041,16.092 C10.193,15.649 8.807,15.649 7.959,16.092 C7.959,16.092 4.646,17.821 4.646,17.821 C3.799,18.263 3.238,17.859 3.400,16.922 C3.400,16.922 4.033,13.259 4.033,13.259 C4.195,12.322 3.766,11.013 3.081,10.349 C3.081,10.349 0.400,7.755 0.400,7.755 C-0.285,7.091 -0.071,6.437 0.876,6.300 C0.876,6.300 4.580,5.765 4.580,5.765 C5.528,5.629 6.649,4.819 7.073,3.967 C7.073,3.967 8.730,0.634 8.730,0.634 C9.153,-0.218 9.847,-0.218 10.270,0.634 C10.270,0.634 11.927,3.967 11.927,3.967 C12.351,4.819 13.472,5.629 14.420,5.765 C14.420,5.765 18.124,6.300 18.124,6.300 C19.071,6.437 19.285,7.091 18.600,7.755 C18.600,7.755 15.919,10.349 15.919,10.349 C15.234,11.013 14.805,12.322 14.967,13.259 C14.967,13.259 15.600,16.922 15.600,16.922 C15.762,17.859 15.201,18.263 14.354,17.821 C14.354,17.821 11.041,16.092 11.041,16.092 Z" id="path-1" class="cls-2" fill-rule="evenodd"/>
</svg>
