<svg xmlns="http://www.w3.org/2000/svg" xmlns:xlink="http://www.w3.org/1999/xlink" preserveAspectRatio="xMidYMid" width="20" height="19" viewBox="0 0 20 19">
  <defs>
    <style>

      .cls-2 {
        fill: #53447e;
        stroke: #9a9a9a;
        stroke-linejoin: round;
        stroke-width: 1px;
        fill-opacity: 0;
      }
    </style>
  </defs>
  <path d="M11.541,16.592 C10.693,16.149 9.307,16.149 8.459,16.592 C8.459,16.592 5.146,18.321 5.146,18.321 C4.299,18.763 3.738,18.359 3.900,17.422 C3.900,17.422 4.533,13.759 4.533,13.759 C4.695,12.822 4.266,11.513 3.581,10.849 C3.581,10.849 0.900,8.255 0.900,8.255 C0.215,7.591 0.429,6.937 1.376,6.800 C1.376,6.800 5.080,6.265 5.080,6.265 C6.028,6.129 7.149,5.319 7.573,4.467 C7.573,4.467 9.230,1.134 9.230,1.134 C9.653,0.282 10.347,0.282 10.770,1.134 C10.770,1.134 12.427,4.467 12.427,4.467 C12.851,5.319 13.972,6.129 14.920,6.265 C14.920,6.265 18.624,6.800 18.624,6.800 C19.571,6.937 19.785,7.591 19.100,8.255 C19.100,8.255 16.419,10.849 16.419,10.849 C15.734,11.513 15.305,12.822 15.467,13.759 C15.467,13.759 16.100,17.422 16.100,17.422 C16.262,18.359 15.701,18.763 14.854,18.321 C14.854,18.321 11.541,16.592 11.541,16.592 Z" id="path-1" class="cls-2" fill-rule="evenodd"/>
</svg>
