<svg xmlns="http://www.w3.org/2000/svg" xmlns:xlink="http://www.w3.org/1999/xlink" preserveAspectRatio="xMidYMid" width="12" height="15" viewBox="0 0 12 15">
  <defs>
    <style>

      .cls-2 {
        fill: #00669c;
      }
    </style>
  </defs>
  <path d="M11.358,9.798 C11.358,8.840 11.096,8.078 10.572,7.511 C10.048,6.945 9.351,6.573 8.479,6.388 C8.479,6.388 8.479,6.314 8.479,6.314 C9.086,6.060 9.559,5.666 9.903,5.127 C10.248,4.589 10.421,3.978 10.421,3.290 C10.421,2.695 10.292,2.170 10.044,1.715 C9.797,1.263 9.418,0.897 8.913,0.624 C8.448,0.373 7.947,0.207 7.412,0.131 C6.878,0.050 6.094,0.010 5.060,0.010 C5.060,0.010 -0.000,0.010 -0.000,0.010 C-0.000,0.010 -0.000,14.119 -0.000,14.119 C-0.000,14.119 5.721,14.119 5.721,14.119 C6.701,14.119 7.505,14.031 8.139,13.854 C8.776,13.676 9.360,13.381 9.891,12.966 C10.339,12.616 10.695,12.179 10.960,11.649 C11.226,11.116 11.358,10.500 11.358,9.798 C11.358,9.798 11.358,9.798 11.358,9.798 ZM6.821,4.002 C6.821,3.773 6.763,3.540 6.645,3.300 C6.530,3.061 6.350,2.885 6.099,2.779 C5.864,2.676 5.593,2.621 5.272,2.610 C4.951,2.602 4.475,2.598 3.845,2.598 C3.845,2.598 3.599,2.598 3.599,2.598 C3.599,2.598 3.599,5.584 3.599,5.584 C3.599,5.584 4.046,5.584 4.046,5.584 C4.649,5.584 5.075,5.577 5.318,5.564 C5.561,5.550 5.815,5.486 6.074,5.368 C6.354,5.236 6.553,5.050 6.658,4.817 C6.767,4.581 6.821,4.309 6.821,4.002 C6.821,4.002 6.821,4.002 6.821,4.002 ZM7.708,9.733 C7.708,9.297 7.623,8.958 7.444,8.710 C7.268,8.460 7.001,8.278 6.646,8.153 C6.435,8.066 6.138,8.022 5.763,8.012 C5.388,8.002 4.883,7.999 4.254,7.999 C4.254,7.999 3.599,7.999 3.599,7.999 C3.599,7.999 3.599,11.531 3.599,11.531 C3.599,11.531 3.790,11.531 3.790,11.531 C4.712,11.531 5.349,11.526 5.701,11.511 C6.054,11.499 6.417,11.415 6.782,11.256 C7.103,11.116 7.338,10.914 7.487,10.647 C7.635,10.378 7.708,10.072 7.708,9.733 Z" id="path-1" class="cls-2" fill-rule="evenodd"/>
</svg>
